<svg xmlns="http://www.w3.org/2000/svg" viewBox="0 0 3450 1162" width="3450" height="1162"><defs><style type="text/css">@import url('https://fonts.googleapis.com/css?family=Roboto+Mono:400|Roboto:400,&amp;subset=cyrillic,cyrillic-ext,greek,greek-ext,latin-ext')</style></defs><rect x="0" y="0" width="3450" height="1162" fill="#ffffff"/><g transform="translate(45,45)"><g><g><g transform="translate(224, 176)"><path d="M31.5 28 L112 28 L192.5 28 C194.5 28 196 29.5 196 31.5 L196 64 L196 96.5 C196 98.5 194.5 100 192.5 100 L112 100 L31.5 100 C29.5 100 28 98.5 28 96.5 L28 64 L28 31.5 C28 29.5 29.5 28 31.5 28 Z" fill="#EBE1FB" stroke="#52565F" stroke-width="2"/><g transform="translate(36, 34)"><text font-size="14" font-family="Roboto,sans-serif" x="76" y="35" text-anchor="middle" fill="#52565f">Компьютеры</text></g></g><g transform="translate(672, 432)"><path d="M31.5 28 L112 28 L192.5 28 C194.5 28 196 29.5 196 31.5 L196 64 L196 96.5 C196 98.5 194.5 100 192.5 100 L112 100 L31.5 100 C29.5 100 28 98.5 28 96.5 L28 64 L28 31.5 C28 29.5 29.5 28 31.5 28 Z" fill="#EBE1FB" stroke="#52565F" stroke-width="2"/><g transform="translate(36, 34)"><text font-size="14" font-family="Roboto,sans-serif" x="76" y="35" text-anchor="middle" fill="#52565f">Железо</text></g></g><g transform="translate(224, 432)"><path d="M31.5 28 L112 28 L192.5 28 C194.5 28 196 29.5 196 31.5 L196 64 L196 96.5 C196 98.5 194.5 100 192.5 100 L112 100 L31.5 100 C29.5 100 28 98.5 28 96.5 L28 64 L28 31.5 C28 29.5 29.5 28 31.5 28 Z" fill="#EBE1FB" stroke="#52565F" stroke-width="2"/><g transform="translate(36, 34)"><text font-size="14" font-family="Roboto,sans-serif" x="76" y="35" text-anchor="middle" fill="#52565f">Комплектация</text></g></g><g transform="translate(224, 304)"><path d="M68.5 44.5 L110 27 A4.846153846153847 4.846153846153847 0 0 1 114 27 L155.5 44.5 L197 62 A2.1724137931034484 2.1724137931034484 0 0 1 197 66 L155.5 83.5 L114 101 A4.846153846153847 4.846153846153847 0 0 1 110 101 L68.5 83.5 L27 66 A2.1724137931034484 2.1724137931034484 0 0 1 27 62 Z" fill="#ffffff" stroke="#52565F" stroke-width="2"/><g transform="translate(64.5, 44)"><text font-size="14" font-family="Roboto,sans-serif" x="47.5" y="25" text-anchor="middle" fill="#52565f">состоит</text></g></g><g transform="translate(448, 432)"><path d="M68.5 44.5 L110 27 A4.846153846153847 4.846153846153847 0 0 1 114 27 L155.5 44.5 L197 62 A2.1724137931034484 2.1724137931034484 0 0 1 197 66 L155.5 83.5 L114 101 A4.846153846153847 4.846153846153847 0 0 1 110 101 L68.5 83.5 L27 66 A2.1724137931034484 2.1724137931034484 0 0 1 27 62 Z" fill="#ffffff" stroke="#52565F" stroke-width="2"/><g transform="translate(64.5, 44)"><text font-size="14" font-family="Roboto,sans-serif" x="47.5" y="25" text-anchor="middle" fill="#52565f">состоит</text></g></g><g transform="translate(896, 304)"><path d="M64 28 L112 28 L160 28 C182 28 196 42 196 64 L196 64 L196 64 C196 86 182 100 160 100 L112 100 L64 100 C42 100 28 86 28 64 L28 64 L28 64 C28 42 42 28 64 28 Z" fill="#ffffff" stroke="#52565F" stroke-width="2"/><g transform="translate(36, 34)"><text font-size="14" font-family="Roboto,sans-serif" x="76" y="35" text-anchor="middle" fill="#52565f">Тип</text></g></g><g transform="translate(896, 432)"><path d="M64 28 L112 28 L160 28 C182 28 196 42 196 64 L196 64 L196 64 C196 86 182 100 160 100 L112 100 L64 100 C42 100 28 86 28 64 L28 64 L28 64 C28 42 42 28 64 28 Z" fill="#ffffff" stroke="#52565F" stroke-width="2"/><g transform="translate(36, 34)"><text font-size="14" font-family="Roboto,sans-serif" x="76" y="35" text-anchor="middle" fill="#52565f">Модель</text></g></g><g transform="translate(896, 560)"><path d="M64 28 L112 28 L160 28 C182 28 196 42 196 64 L196 64 L196 64 C196 86 182 100 160 100 L112 100 L64 100 C42 100 28 86 28 64 L28 64 L28 64 C28 42 42 28 64 28 Z" fill="#ffffff" stroke="#52565F" stroke-width="2"/><g transform="translate(36, 34)"><text font-size="14" font-family="Roboto,sans-serif" x="76" y="25" text-anchor="middle" fill="#52565f">Список</text><text font-size="14" font-family="Roboto,sans-serif" x="76" y="45" text-anchor="middle" fill="#52565f">характеристики</text></g></g><g transform="translate(896, 176)"><path d="M64 28 L112 28 L160 28 C182 28 196 42 196 64 L196 64 L196 64 C196 86 182 100 160 100 L112 100 L64 100 C42 100 28 86 28 64 L28 64 L28 64 C28 42 42 28 64 28 Z" fill="#ffffff" stroke="#52565F" stroke-width="2"/><g transform="translate(36, 34)"><text font-size="14" font-family="Roboto,sans-serif" x="76" y="35" text-anchor="middle" fill="#52565f">Цена</text></g></g><g transform="translate(0, 560)"><path d="M64 28 L112 28 L160 28 C182 28 196 42 196 64 L196 64 L196 64 C196 86 182 100 160 100 L112 100 L64 100 C42 100 28 86 28 64 L28 64 L28 64 C28 42 42 28 64 28 Z" fill="#ffffff" stroke="#52565F" stroke-width="2"/><g transform="translate(36, 34)"><text font-size="14" font-family="Roboto,sans-serif" x="76" y="35" text-anchor="middle" fill="#52565f">Тип</text></g></g><g transform="translate(0, 432)"><path d="M64 28 L112 28 L160 28 C182 28 196 42 196 64 L196 64 L196 64 C196 86 182 100 160 100 L112 100 L64 100 C42 100 28 86 28 64 L28 64 L28 64 C28 42 42 28 64 28 Z" fill="#ffffff" stroke="#52565F" stroke-width="2"/><g transform="translate(36, 34)"><text font-size="14" font-family="Roboto,sans-serif" x="76" y="35" text-anchor="middle" fill="#52565f">Цена</text></g></g><g transform="translate(0, 688)"><path d="M64 28 L112 28 L160 28 C182 28 196 42 196 64 L196 64 L196 64 C196 86 182 100 160 100 L112 100 L64 100 C42 100 28 86 28 64 L28 64 L28 64 C28 42 42 28 64 28 Z" fill="#ffffff" stroke="#52565F" stroke-width="2"/><g transform="translate(36, 34)"><text font-size="14" font-family="Roboto,sans-serif" x="76" y="35" text-anchor="middle" fill="#52565f">Серийный номер</text></g></g><g transform="translate(0, 48)"><path d="M64 28 L112 28 L160 28 C182 28 196 42 196 64 L196 64 L196 64 C196 86 182 100 160 100 L112 100 L64 100 C42 100 28 86 28 64 L28 64 L28 64 C28 42 42 28 64 28 Z" fill="#ffffff" stroke="#52565F" stroke-width="2"/><g transform="translate(36, 34)"><text font-size="14" font-family="Roboto,sans-serif" x="76" y="35" text-anchor="middle" fill="#52565f">Цена</text></g></g><g transform="translate(896, 688)"><path d="M64 28 L112 28 L160 28 C182 28 196 42 196 64 L196 64 L196 64 C196 86 182 100 160 100 L112 100 L64 100 C42 100 28 86 28 64 L28 64 L28 64 C28 42 42 28 64 28 Z" fill="#ffffff" stroke="#52565F" stroke-width="2"/><g transform="translate(36, 34)"><text font-size="14" font-family="Roboto,sans-serif" x="76" y="35" text-anchor="middle" fill="#52565f">Гарантия</text></g></g><g transform="translate(0, 176)"><path d="M64 28 L112 28 L160 28 C182 28 196 42 196 64 L196 64 L196 64 C196 86 182 100 160 100 L112 100 L64 100 C42 100 28 86 28 64 L28 64 L28 64 C28 42 42 28 64 28 Z" fill="#ffffff" stroke="#52565F" stroke-width="2"/><g transform="translate(36, 34)"><text font-size="14" font-family="Roboto,sans-serif" x="76" y="35" text-anchor="middle" fill="#52565f">Состав</text></g></g><g transform="translate(1568, 240)"><path d="M31.5 28 L112 28 L192.5 28 C194.5 28 196 29.5 196 31.5 L196 64 L196 96.5 C196 98.5 194.5 100 192.5 100 L112 100 L31.5 100 C29.5 100 28 98.5 28 96.5 L28 64 L28 31.5 C28 29.5 29.5 28 31.5 28 Z" fill="#EBE1FB" stroke="#52565F" stroke-width="2"/><g transform="translate(36, 34)"><text font-size="14" font-family="Roboto,sans-serif" x="76" y="35" text-anchor="middle" fill="#52565f">Кинотеатры</text></g></g><g transform="translate(2464, 752)"><path d="M31.5 28 L112 28 L192.5 28 C194.5 28 196 29.5 196 31.5 L196 64 L196 96.5 C196 98.5 194.5 100 192.5 100 L112 100 L31.5 100 C29.5 100 28 98.5 28 96.5 L28 64 L28 31.5 C28 29.5 29.5 28 31.5 28 Z" fill="#EBE1FB" stroke="#52565F" stroke-width="2"/><g transform="translate(36, 34)"><text font-size="14" font-family="Roboto,sans-serif" x="76" y="35" text-anchor="middle" fill="#52565f">Фильмы</text></g></g><g transform="translate(2688, 944)"><path d="M64 28 L112 28 L160 28 C182 28 196 42 196 64 L196 64 L196 64 C196 86 182 100 160 100 L112 100 L64 100 C42 100 28 86 28 64 L28 64 L28 64 C28 42 42 28 64 28 Z" fill="#ffffff" stroke="#52565F" stroke-width="2"/><g transform="translate(36, 34)"><text font-size="14" font-family="Roboto,sans-serif" x="76" y="35" text-anchor="middle" fill="#52565f">Описание</text></g></g><g transform="translate(2688, 816)"><path d="M64 28 L112 28 L160 28 C182 28 196 42 196 64 L196 64 L196 64 C196 86 182 100 160 100 L112 100 L64 100 C42 100 28 86 28 64 L28 64 L28 64 C28 42 42 28 64 28 Z" fill="#ffffff" stroke="#52565F" stroke-width="2"/><g transform="translate(36, 34)"><text font-size="14" font-family="Roboto,sans-serif" x="76" y="35" text-anchor="middle" fill="#52565f">Возрастной ценз</text></g></g><g transform="translate(2688, 688)"><path d="M64 28 L112 28 L160 28 C182 28 196 42 196 64 L196 64 L196 64 C196 86 182 100 160 100 L112 100 L64 100 C42 100 28 86 28 64 L28 64 L28 64 C28 42 42 28 64 28 Z" fill="#ffffff" stroke="#52565F" stroke-width="2"/><g transform="translate(36, 34)"><text font-size="14" font-family="Roboto,sans-serif" x="76" y="35" text-anchor="middle" fill="#52565f">Жанр</text></g></g><g transform="translate(2688, 48)"><path d="M64 28 L112 28 L160 28 C182 28 196 42 196 64 L196 64 L196 64 C196 86 182 100 160 100 L112 100 L64 100 C42 100 28 86 28 64 L28 64 L28 64 C28 42 42 28 64 28 Z" fill="#ffffff" stroke="#52565F" stroke-width="2"/><g transform="translate(36, 34)"><text font-size="14" font-family="Roboto,sans-serif" x="76" y="35" text-anchor="middle" fill="#52565f">Формат</text></g></g><g transform="translate(2688, 176)"><path d="M64 28 L112 28 L160 28 C182 28 196 42 196 64 L196 64 L196 64 C196 86 182 100 160 100 L112 100 L64 100 C42 100 28 86 28 64 L28 64 L28 64 C28 42 42 28 64 28 Z" fill="#ffffff" stroke="#52565F" stroke-width="2"/><g transform="translate(36, 34)"><text font-size="14" font-family="Roboto,sans-serif" x="76" y="35" text-anchor="middle" fill="#52565f">Время начала</text></g></g><g transform="translate(2688, 432)"><path d="M64 28 L112 28 L160 28 C182 28 196 42 196 64 L196 64 L196 64 C196 86 182 100 160 100 L112 100 L64 100 C42 100 28 86 28 64 L28 64 L28 64 C28 42 42 28 64 28 Z" fill="#ffffff" stroke="#52565F" stroke-width="2"/><g transform="translate(36, 34)"><text font-size="14" font-family="Roboto,sans-serif" x="76" y="35" text-anchor="middle" fill="#52565f">Дата показа</text></g></g><g transform="translate(2016, 240)"><path d="M31.5 28 L112 28 L192.5 28 C194.5 28 196 29.5 196 31.5 L196 64 L196 96.5 C196 98.5 194.5 100 192.5 100 L112 100 L31.5 100 C29.5 100 28 98.5 28 96.5 L28 64 L28 31.5 C28 29.5 29.5 28 31.5 28 Z" fill="#EBE1FB" stroke="#52565F" stroke-width="2"/><g transform="translate(36, 34)"><text font-size="14" font-family="Roboto,sans-serif" x="76" y="35" text-anchor="middle" fill="#52565f">Прокат фильмов</text></g></g><g transform="translate(2912, 688)"><path d="M64 28 L112 28 L160 28 C182 28 196 42 196 64 L196 64 L196 64 C196 86 182 100 160 100 L112 100 L64 100 C42 100 28 86 28 64 L28 64 L28 64 C28 42 42 28 64 28 Z" fill="#ffffff" stroke="#52565F" stroke-width="2"/><g transform="translate(36, 34)"><text font-size="14" font-family="Roboto,sans-serif" x="76" y="35" text-anchor="middle" fill="#52565f">Постер</text></g></g><g transform="translate(2912, 560)"><path d="M64 28 L112 28 L160 28 C182 28 196 42 196 64 L196 64 L196 64 C196 86 182 100 160 100 L112 100 L64 100 C42 100 28 86 28 64 L28 64 L28 64 C28 42 42 28 64 28 Z" fill="#ffffff" stroke="#52565F" stroke-width="2"/><g transform="translate(36, 34)"><text font-size="14" font-family="Roboto,sans-serif" x="76" y="35" text-anchor="middle" fill="#52565f">Название</text></g></g><g transform="translate(2912, 944)"><path d="M64 28 L112 28 L160 28 C182 28 196 42 196 64 L196 64 L196 64 C196 86 182 100 160 100 L112 100 L64 100 C42 100 28 86 28 64 L28 64 L28 64 C28 42 42 28 64 28 Z" fill="#ffffff" stroke="#52565F" stroke-width="2"/><g transform="translate(36, 34)"><text font-size="14" font-family="Roboto,sans-serif" x="76" y="35" text-anchor="middle" fill="#52565f">Актёры</text></g></g><g transform="translate(2912, 816)"><path d="M64 28 L112 28 L160 28 C182 28 196 42 196 64 L196 64 L196 64 C196 86 182 100 160 100 L112 100 L64 100 C42 100 28 86 28 64 L28 64 L28 64 C28 42 42 28 64 28 Z" fill="#ffffff" stroke="#52565F" stroke-width="2"/><g transform="translate(36, 34)"><text font-size="14" font-family="Roboto,sans-serif" x="76" y="35" text-anchor="middle" fill="#52565f">Рейтинг</text></g></g><g transform="translate(1792, 240)"><path d="M68.5 44.5 L110 27 A4.846153846153847 4.846153846153847 0 0 1 114 27 L155.5 44.5 L197 62 A2.1724137931034484 2.1724137931034484 0 0 1 197 66 L155.5 83.5 L114 101 A4.846153846153847 4.846153846153847 0 0 1 110 101 L68.5 83.5 L27 66 A2.1724137931034484 2.1724137931034484 0 0 1 27 62 Z" fill="#ffffff" stroke="#52565F" stroke-width="2"/><g transform="translate(64.5, 44)"><text font-size="14" font-family="Roboto,sans-serif" x="47.5" y="25" text-anchor="middle" fill="#52565f">есть</text></g></g><g transform="translate(2688, 304)"><path d="M64 28 L112 28 L160 28 C182 28 196 42 196 64 L196 64 L196 64 C196 86 182 100 160 100 L112 100 L64 100 C42 100 28 86 28 64 L28 64 L28 64 C28 42 42 28 64 28 Z" fill="#ffffff" stroke="#52565F" stroke-width="2"/><g transform="translate(36, 34)"><text font-size="14" font-family="Roboto,sans-serif" x="76" y="35" text-anchor="middle" fill="#52565f">Цена</text></g></g><g transform="translate(1568, 496)"><path d="M31.5 28 L112 28 L192.5 28 C194.5 28 196 29.5 196 31.5 L196 64 L196 96.5 C196 98.5 194.5 100 192.5 100 L112 100 L31.5 100 C29.5 100 28 98.5 28 96.5 L28 64 L28 31.5 C28 29.5 29.5 28 31.5 28 Z" fill="#ffffff" stroke="#52565F" stroke-width="2"/><g transform="translate(36, 34)"><text font-size="14" font-family="Roboto,sans-serif" x="76" y="35" text-anchor="middle" fill="#52565f">Залы</text></g></g><g transform="translate(1568, 368)"><path d="M68.5 44.5 L110 27 A4.846153846153847 4.846153846153847 0 0 1 114 27 L155.5 44.5 L197 62 A2.1724137931034484 2.1724137931034484 0 0 1 197 66 L155.5 83.5 L114 101 A4.846153846153847 4.846153846153847 0 0 1 110 101 L68.5 83.5 L27 66 A2.1724137931034484 2.1724137931034484 0 0 1 27 62 Z" fill="#ffffff" stroke="#52565F" stroke-width="2"/><g transform="translate(64.5, 44)"><text font-size="14" font-family="Roboto,sans-serif" x="47.5" y="25" text-anchor="middle" fill="#52565f">имеют</text></g></g><g transform="translate(2688, 560)"><path d="M64 28 L112 28 L160 28 C182 28 196 42 196 64 L196 64 L196 64 C196 86 182 100 160 100 L112 100 L64 100 C42 100 28 86 28 64 L28 64 L28 64 C28 42 42 28 64 28 Z" fill="#ffffff" stroke="#52565F" stroke-width="2"/><g transform="translate(36, 34)"><text font-size="14" font-family="Roboto,sans-serif" x="76" y="35" text-anchor="middle" fill="#52565f">Категория</text></g></g><g transform="translate(1344, 176)"><path d="M64 28 L112 28 L160 28 C182 28 196 42 196 64 L196 64 L196 64 C196 86 182 100 160 100 L112 100 L64 100 C42 100 28 86 28 64 L28 64 L28 64 C28 42 42 28 64 28 Z" fill="#ffffff" stroke="#52565F" stroke-width="2"/><g transform="translate(36, 34)"><text font-size="14" font-family="Roboto,sans-serif" x="76" y="35" text-anchor="middle" fill="#52565f">Название</text></g></g><g transform="translate(1344, 304)"><path d="M64 28 L112 28 L160 28 C182 28 196 42 196 64 L196 64 L196 64 C196 86 182 100 160 100 L112 100 L64 100 C42 100 28 86 28 64 L28 64 L28 64 C28 42 42 28 64 28 Z" fill="#ffffff" stroke="#52565F" stroke-width="2"/><g transform="translate(36, 34)"><text font-size="14" font-family="Roboto,sans-serif" x="76" y="35" text-anchor="middle" fill="#52565f">Город</text></g></g><g transform="translate(1344, 560)"><path d="M64 28 L112 28 L160 28 C182 28 196 42 196 64 L196 64 L196 64 C196 86 182 100 160 100 L112 100 L64 100 C42 100 28 86 28 64 L28 64 L28 64 C28 42 42 28 64 28 Z" fill="#ffffff" stroke="#52565F" stroke-width="2"/><g transform="translate(36, 34)"><text font-size="14" font-family="Roboto,sans-serif" x="76" y="25" text-anchor="middle" fill="#52565f">Поддерживаемые</text><text font-size="14" font-family="Roboto,sans-serif" x="76" y="45" text-anchor="middle" fill="#52565f">форматы</text></g></g><g transform="translate(1344, 816)"><path d="M64 28 L112 28 L160 28 C182 28 196 42 196 64 L196 64 L196 64 C196 86 182 100 160 100 L112 100 L64 100 C42 100 28 86 28 64 L28 64 L28 64 C28 42 42 28 64 28 Z" fill="#ffffff" stroke="#52565F" stroke-width="2"/><g transform="translate(36, 34)"><text font-size="14" font-family="Roboto,sans-serif" x="76" y="35" text-anchor="middle" fill="#52565f">Тип</text></g></g><g transform="translate(1344, 432)"><path d="M64 28 L112 28 L160 28 C182 28 196 42 196 64 L196 64 L196 64 C196 86 182 100 160 100 L112 100 L64 100 C42 100 28 86 28 64 L28 64 L28 64 C28 42 42 28 64 28 Z" fill="#ffffff" stroke="#52565F" stroke-width="2"/><g transform="translate(36, 34)"><text font-size="14" font-family="Roboto,sans-serif" x="76" y="35" text-anchor="middle" fill="#52565f">Схема зала</text></g></g><g transform="translate(1344, 688)"><path d="M64 28 L112 28 L160 28 C182 28 196 42 196 64 L196 64 L196 64 C196 86 182 100 160 100 L112 100 L64 100 C42 100 28 86 28 64 L28 64 L28 64 C28 42 42 28 64 28 Z" fill="#ffffff" stroke="#52565F" stroke-width="2"/><g transform="translate(36, 34)"><text font-size="14" font-family="Roboto,sans-serif" x="76" y="35" text-anchor="middle" fill="#52565f">Название</text></g></g><g transform="translate(2240, 240)"><path d="M68.5 44.5 L110 27 A4.846153846153847 4.846153846153847 0 0 1 114 27 L155.5 44.5 L197 62 A2.1724137931034484 2.1724137931034484 0 0 1 197 66 L155.5 83.5 L114 101 A4.846153846153847 4.846153846153847 0 0 1 110 101 L68.5 83.5 L27 66 A2.1724137931034484 2.1724137931034484 0 0 1 27 62 Z" fill="#ffffff" stroke="#52565F" stroke-width="2"/><g transform="translate(64.5, 44)"><text font-size="14" font-family="Roboto,sans-serif" x="47.5" y="15" text-anchor="middle" fill="#52565f">единица</text><text font-size="14" font-family="Roboto,sans-serif" x="47.5" y="35" text-anchor="middle" fill="#52565f">расписания</text></g></g><g transform="translate(2464, 240)"><path d="M31.5 28 L112 28 L192.5 28 C194.5 28 196 29.5 196 31.5 L196 64 L196 96.5 C196 98.5 194.5 100 192.5 100 L112 100 L31.5 100 C29.5 100 28 98.5 28 96.5 L28 64 L28 31.5 C28 29.5 29.5 28 31.5 28 Z" fill="#ffffff" stroke="#52565F" stroke-width="2"/><g transform="translate(36, 34)"><text font-size="14" font-family="Roboto,sans-serif" x="76" y="35" text-anchor="middle" fill="#52565f">Сеанс</text></g></g><g transform="translate(2464, 496)"><path d="M68.5 44.5 L110 27 A4.846153846153847 4.846153846153847 0 0 1 114 27 L155.5 44.5 L197 62 A2.1724137931034484 2.1724137931034484 0 0 1 197 66 L155.5 83.5 L114 101 A4.846153846153847 4.846153846153847 0 0 1 110 101 L68.5 83.5 L27 66 A2.1724137931034484 2.1724137931034484 0 0 1 27 62 Z" fill="#ffffff" stroke="#52565F" stroke-width="2"/><g transform="translate(64.5, 44)"><text font-size="14" font-family="Roboto,sans-serif" x="47.5" y="25" text-anchor="middle" fill="#52565f">имеет</text></g></g><g transform="translate(3136, 752)"><path d="M64 28 L112 28 L160 28 C182 28 196 42 196 64 L196 64 L196 64 C196 86 182 100 160 100 L112 100 L64 100 C42 100 28 86 28 64 L28 64 L28 64 C28 42 42 28 64 28 Z" fill="#ffffff" stroke="#52565F" stroke-width="2"/><g transform="translate(36, 34)"><text font-size="14" font-family="Roboto,sans-serif" x="76" y="35" text-anchor="middle" fill="#52565f">Продолжительность</text></g></g></g><g><g><path fill="none" stroke="#4d9ef6" stroke-width="2" stroke-dasharray="0px 0px" d="M 336,277L 336,304L 336,304L 336,327.5"/><path transform="translate( 339, 279 ) rotate( 180 )" d="M3 6C4.65685 6 6 4.65685 6 3C6 1.34315 4.65685 0 3 0C1.34315 0 0 1.34315 0 3C0 4.65685 1.34315 6 3 6Z" fill="#4d9ef6"/><path transform="translate( 343, 329.5 ) rotate( 540 )" d="M6.34003 0.275664C6.70452 -0.0918881 7.29548 -0.0918881 7.65997 0.275664L13.7266 6.39331C14.0911 6.76086 14.0911 7.35678 13.7266 7.72434C13.3621 8.09189 12.7712 8.09189 12.4067 7.72434L7 2.2722L1.5933 7.72434C1.22881 8.09189 0.637856 8.09189 0.273367 7.72434C-0.0911224 7.35678 -0.0911224 6.76086 0.273367 6.39331L6.34003 0.275664Z" fill="#4d9ef6"/></g><g><path fill="none" stroke="#4d9ef6" stroke-width="2" stroke-dasharray="0px 0px" d="M 251,240L 234,240Q224,240 224,230L 224,122Q224,112 214,112L 199,112"/><path transform="translate( 249, 243 ) rotate( 270 )" d="M3 6C4.65685 6 6 4.65685 6 3C6 1.34315 4.65685 0 3 0C1.34315 0 0 1.34315 0 3C0 4.65685 1.34315 6 3 6Z" fill="#4d9ef6"/><path transform="translate( 197, 119 ) rotate( 630 )" d="M6.34003 0.275664C6.70452 -0.0918881 7.29548 -0.0918881 7.65997 0.275664L13.7266 6.39331C14.0911 6.76086 14.0911 7.35678 13.7266 7.72434C13.3621 8.09189 12.7712 8.09189 12.4067 7.72434L7 2.2722L1.5933 7.72434C1.22881 8.09189 0.637856 8.09189 0.273367 7.72434C-0.0911224 7.35678 -0.0911224 6.76086 0.273367 6.39331L6.34003 0.275664Z" fill="#4d9ef6"/></g><g><path fill="none" stroke="#4d9ef6" stroke-width="2" stroke-dasharray="0px 0px" d="M 251,240L 224,240L 224,240L 199,240"/><path transform="translate( 249, 243 ) rotate( 270 )" d="M3 6C4.65685 6 6 4.65685 6 3C6 1.34315 4.65685 0 3 0C1.34315 0 0 1.34315 0 3C0 4.65685 1.34315 6 3 6Z" fill="#4d9ef6"/><path transform="translate( 197, 247 ) rotate( 630 )" d="M6.34003 0.275664C6.70452 -0.0918881 7.29548 -0.0918881 7.65997 0.275664L13.7266 6.39331C14.0911 6.76086 14.0911 7.35678 13.7266 7.72434C13.3621 8.09189 12.7712 8.09189 12.4067 7.72434L7 2.2722L1.5933 7.72434C1.22881 8.09189 0.637856 8.09189 0.273367 7.72434C-0.0911224 7.35678 -0.0911224 6.76086 0.273367 6.39331L6.34003 0.275664Z" fill="#4d9ef6"/></g><g><path fill="none" stroke="#4d9ef6" stroke-width="2" stroke-dasharray="0px 0px" d="M 869,496L 896,496L 896,496L 921,496"/><path transform="translate( 871, 493 ) rotate( 450 )" d="M3 6C4.65685 6 6 4.65685 6 3C6 1.34315 4.65685 0 3 0C1.34315 0 0 1.34315 0 3C0 4.65685 1.34315 6 3 6Z" fill="#4d9ef6"/><path transform="translate( 923, 489 ) rotate( 450 )" d="M6.34003 0.275664C6.70452 -0.0918881 7.29548 -0.0918881 7.65997 0.275664L13.7266 6.39331C14.0911 6.76086 14.0911 7.35678 13.7266 7.72434C13.3621 8.09189 12.7712 8.09189 12.4067 7.72434L7 2.2722L1.5933 7.72434C1.22881 8.09189 0.637856 8.09189 0.273367 7.72434C-0.0911224 7.35678 -0.0911224 6.76086 0.273367 6.39331L6.34003 0.275664Z" fill="#4d9ef6"/></g><g><path fill="none" stroke="#4d9ef6" stroke-width="2" stroke-dasharray="0px 0px" d="M 869,496L 886,496Q896,496 896,506L 896,614Q896,624 906,624L 921,624"/><path transform="translate( 871, 493 ) rotate( 450 )" d="M3 6C4.65685 6 6 4.65685 6 3C6 1.34315 4.65685 0 3 0C1.34315 0 0 1.34315 0 3C0 4.65685 1.34315 6 3 6Z" fill="#4d9ef6"/><path transform="translate( 923, 617 ) rotate( 450 )" d="M6.34003 0.275664C6.70452 -0.0918881 7.29548 -0.0918881 7.65997 0.275664L13.7266 6.39331C14.0911 6.76086 14.0911 7.35678 13.7266 7.72434C13.3621 8.09189 12.7712 8.09189 12.4067 7.72434L7 2.2722L1.5933 7.72434C1.22881 8.09189 0.637856 8.09189 0.273367 7.72434C-0.0911224 7.35678 -0.0911224 6.76086 0.273367 6.39331L6.34003 0.275664Z" fill="#4d9ef6"/></g><g><path fill="none" stroke="#4d9ef6" stroke-width="2" stroke-dasharray="0px 0px" d="M 869,496L 886,496Q896,496 896,486L 896,378Q896,368 906,368L 921,368"/><path transform="translate( 871, 493 ) rotate( 450 )" d="M3 6C4.65685 6 6 4.65685 6 3C6 1.34315 4.65685 0 3 0C1.34315 0 0 1.34315 0 3C0 4.65685 1.34315 6 3 6Z" fill="#4d9ef6"/><path transform="translate( 923, 361 ) rotate( 450 )" d="M6.34003 0.275664C6.70452 -0.0918881 7.29548 -0.0918881 7.65997 0.275664L13.7266 6.39331C14.0911 6.76086 14.0911 7.35678 13.7266 7.72434C13.3621 8.09189 12.7712 8.09189 12.4067 7.72434L7 2.2722L1.5933 7.72434C1.22881 8.09189 0.637856 8.09189 0.273367 7.72434C-0.0911224 7.35678 -0.0911224 6.76086 0.273367 6.39331L6.34003 0.275664Z" fill="#4d9ef6"/></g><g><path fill="none" stroke="#4d9ef6" stroke-width="2" stroke-dasharray="0px 0px" d="M 869,496L 886,496Q896,496 896,486L 896,250Q896,240 906,240L 921,240"/><path transform="translate( 871, 493 ) rotate( 450 )" d="M3 6C4.65685 6 6 4.65685 6 3C6 1.34315 4.65685 0 3 0C1.34315 0 0 1.34315 0 3C0 4.65685 1.34315 6 3 6Z" fill="#4d9ef6"/><path transform="translate( 923, 233 ) rotate( 450 )" d="M6.34003 0.275664C6.70452 -0.0918881 7.29548 -0.0918881 7.65997 0.275664L13.7266 6.39331C14.0911 6.76086 14.0911 7.35678 13.7266 7.72434C13.3621 8.09189 12.7712 8.09189 12.4067 7.72434L7 2.2722L1.5933 7.72434C1.22881 8.09189 0.637856 8.09189 0.273367 7.72434C-0.0911224 7.35678 -0.0911224 6.76086 0.273367 6.39331L6.34003 0.275664Z" fill="#4d9ef6"/></g><g><path fill="none" stroke="#4d9ef6" stroke-width="2" stroke-dasharray="0px 0px" d="M 869,496L 886,496Q896,496 896,506L 896,742Q896,752 906,752L 921,752"/><path transform="translate( 871, 493 ) rotate( 450 )" d="M3 6C4.65685 6 6 4.65685 6 3C6 1.34315 4.65685 0 3 0C1.34315 0 0 1.34315 0 3C0 4.65685 1.34315 6 3 6Z" fill="#4d9ef6"/><path transform="translate( 923, 745 ) rotate( 450 )" d="M6.34003 0.275664C6.70452 -0.0918881 7.29548 -0.0918881 7.65997 0.275664L13.7266 6.39331C14.0911 6.76086 14.0911 7.35678 13.7266 7.72434C13.3621 8.09189 12.7712 8.09189 12.4067 7.72434L7 2.2722L1.5933 7.72434C1.22881 8.09189 0.637856 8.09189 0.273367 7.72434C-0.0911224 7.35678 -0.0911224 6.76086 0.273367 6.39331L6.34003 0.275664Z" fill="#4d9ef6"/></g><g><path fill="none" stroke="#4d9ef6" stroke-width="2" stroke-dasharray="0px 0px" d="M 421,496L 448,496L 448,496L 471,496"/><path transform="translate( 423, 493 ) rotate( 450 )" d="M3 6C4.65685 6 6 4.65685 6 3C6 1.34315 4.65685 0 3 0C1.34315 0 0 1.34315 0 3C0 4.65685 1.34315 6 3 6Z" fill="#4d9ef6"/><path transform="translate( 473, 489 ) rotate( 450 )" d="M6.34003 0.275664C6.70452 -0.0918881 7.29548 -0.0918881 7.65997 0.275664L13.7266 6.39331C14.0911 6.76086 14.0911 7.35678 13.7266 7.72434C13.3621 8.09189 12.7712 8.09189 12.4067 7.72434L7 2.2722L1.5933 7.72434C1.22881 8.09189 0.637856 8.09189 0.273367 7.72434C-0.0911224 7.35678 -0.0911224 6.76086 0.273367 6.39331L6.34003 0.275664Z" fill="#4d9ef6"/></g><g><path fill="none" stroke="#4d9ef6" stroke-width="2" stroke-dasharray="0px 0px" d="M 251,496L 224,496L 224,496L 199,496"/><path transform="translate( 249, 499 ) rotate( 270 )" d="M3 6C4.65685 6 6 4.65685 6 3C6 1.34315 4.65685 0 3 0C1.34315 0 0 1.34315 0 3C0 4.65685 1.34315 6 3 6Z" fill="#4d9ef6"/><path transform="translate( 197, 503 ) rotate( 630 )" d="M6.34003 0.275664C6.70452 -0.0918881 7.29548 -0.0918881 7.65997 0.275664L13.7266 6.39331C14.0911 6.76086 14.0911 7.35678 13.7266 7.72434C13.3621 8.09189 12.7712 8.09189 12.4067 7.72434L7 2.2722L1.5933 7.72434C1.22881 8.09189 0.637856 8.09189 0.273367 7.72434C-0.0911224 7.35678 -0.0911224 6.76086 0.273367 6.39331L6.34003 0.275664Z" fill="#4d9ef6"/></g><g><path fill="none" stroke="#4d9ef6" stroke-width="2" stroke-dasharray="0px 0px" d="M 251,496L 234,496Q224,496 224,506L 224,614Q224,624 214,624L 199,624"/><path transform="translate( 249, 499 ) rotate( 270 )" d="M3 6C4.65685 6 6 4.65685 6 3C6 1.34315 4.65685 0 3 0C1.34315 0 0 1.34315 0 3C0 4.65685 1.34315 6 3 6Z" fill="#4d9ef6"/><path transform="translate( 197, 631 ) rotate( 630 )" d="M6.34003 0.275664C6.70452 -0.0918881 7.29548 -0.0918881 7.65997 0.275664L13.7266 6.39331C14.0911 6.76086 14.0911 7.35678 13.7266 7.72434C13.3621 8.09189 12.7712 8.09189 12.4067 7.72434L7 2.2722L1.5933 7.72434C1.22881 8.09189 0.637856 8.09189 0.273367 7.72434C-0.0911224 7.35678 -0.0911224 6.76086 0.273367 6.39331L6.34003 0.275664Z" fill="#4d9ef6"/></g><g><path fill="none" stroke="#4d9ef6" stroke-width="2" stroke-dasharray="0px 0px" d="M 251,496L 234,496Q224,496 224,506L 224,742Q224,752 214,752L 199,752"/><path transform="translate( 249, 499 ) rotate( 270 )" d="M3 6C4.65685 6 6 4.65685 6 3C6 1.34315 4.65685 0 3 0C1.34315 0 0 1.34315 0 3C0 4.65685 1.34315 6 3 6Z" fill="#4d9ef6"/><path transform="translate( 197, 759 ) rotate( 630 )" d="M6.34003 0.275664C6.70452 -0.0918881 7.29548 -0.0918881 7.65997 0.275664L13.7266 6.39331C14.0911 6.76086 14.0911 7.35678 13.7266 7.72434C13.3621 8.09189 12.7712 8.09189 12.4067 7.72434L7 2.2722L1.5933 7.72434C1.22881 8.09189 0.637856 8.09189 0.273367 7.72434C-0.0911224 7.35678 -0.0911224 6.76086 0.273367 6.39331L6.34003 0.275664Z" fill="#4d9ef6"/></g><g><path fill="none" stroke="#4d9ef6" stroke-width="2" stroke-dasharray="0px 0px" d="M 336,406.5L 336,432L 336,432L 336,457"/><path transform="translate( 339, 408.5 ) rotate( 180 )" d="M3 6C4.65685 6 6 4.65685 6 3C6 1.34315 4.65685 0 3 0C1.34315 0 0 1.34315 0 3C0 4.65685 1.34315 6 3 6Z" fill="#4d9ef6"/><path transform="translate( 343, 459 ) rotate( 540 )" d="M6.34003 0.275664C6.70452 -0.0918881 7.29548 -0.0918881 7.65997 0.275664L13.7266 6.39331C14.0911 6.76086 14.0911 7.35678 13.7266 7.72434C13.3621 8.09189 12.7712 8.09189 12.4067 7.72434L7 2.2722L1.5933 7.72434C1.22881 8.09189 0.637856 8.09189 0.273367 7.72434C-0.0911224 7.35678 -0.0911224 6.76086 0.273367 6.39331L6.34003 0.275664Z" fill="#4d9ef6"/></g><g><path fill="none" stroke="#4d9ef6" stroke-width="2" stroke-dasharray="0px 0px" d="M 647,496L 672,496L 672,496L 697,496"/><path transform="translate( 649, 493 ) rotate( 450 )" d="M3 6C4.65685 6 6 4.65685 6 3C6 1.34315 4.65685 0 3 0C1.34315 0 0 1.34315 0 3C0 4.65685 1.34315 6 3 6Z" fill="#4d9ef6"/><path transform="translate( 699, 489 ) rotate( 450 )" d="M6.34003 0.275664C6.70452 -0.0918881 7.29548 -0.0918881 7.65997 0.275664L13.7266 6.39331C14.0911 6.76086 14.0911 7.35678 13.7266 7.72434C13.3621 8.09189 12.7712 8.09189 12.4067 7.72434L7 2.2722L1.5933 7.72434C1.22881 8.09189 0.637856 8.09189 0.273367 7.72434C-0.0911224 7.35678 -0.0911224 6.76086 0.273367 6.39331L6.34003 0.275664Z" fill="#4d9ef6"/></g><g><path fill="none" stroke="#4d9ef6" stroke-width="2" stroke-dasharray="0px 0px" d="M 1680,341L 1680,368L 1680,368L 1680,391.5"/><path transform="translate( 1683, 343 ) rotate( 180 )" d="M3 6C4.65685 6 6 4.65685 6 3C6 1.34315 4.65685 0 3 0C1.34315 0 0 1.34315 0 3C0 4.65685 1.34315 6 3 6Z" fill="#4d9ef6"/><path transform="translate( 1687, 393.5 ) rotate( 540 )" d="M6.34003 0.275664C6.70452 -0.0918881 7.29548 -0.0918881 7.65997 0.275664L13.7266 6.39331C14.0911 6.76086 14.0911 7.35678 13.7266 7.72434C13.3621 8.09189 12.7712 8.09189 12.4067 7.72434L7 2.2722L1.5933 7.72434C1.22881 8.09189 0.637856 8.09189 0.273367 7.72434C-0.0911224 7.35678 -0.0911224 6.76086 0.273367 6.39331L6.34003 0.275664Z" fill="#4d9ef6"/></g><g><path fill="none" stroke="#4d9ef6" stroke-width="2" stroke-dasharray="0px 0px" d="M 1595,304L 1578,304Q1568,304 1568,294L 1568,250Q1568,240 1558,240L 1543,240"/><path transform="translate( 1593, 307 ) rotate( 270 )" d="M3 6C4.65685 6 6 4.65685 6 3C6 1.34315 4.65685 0 3 0C1.34315 0 0 1.34315 0 3C0 4.65685 1.34315 6 3 6Z" fill="#4d9ef6"/><path transform="translate( 1541, 247 ) rotate( 630 )" d="M6.34003 0.275664C6.70452 -0.0918881 7.29548 -0.0918881 7.65997 0.275664L13.7266 6.39331C14.0911 6.76086 14.0911 7.35678 13.7266 7.72434C13.3621 8.09189 12.7712 8.09189 12.4067 7.72434L7 2.2722L1.5933 7.72434C1.22881 8.09189 0.637856 8.09189 0.273367 7.72434C-0.0911224 7.35678 -0.0911224 6.76086 0.273367 6.39331L6.34003 0.275664Z" fill="#4d9ef6"/></g><g><path fill="none" stroke="#4d9ef6" stroke-width="2" stroke-dasharray="0px 0px" d="M 1595,304L 1578,304Q1568,304 1568,314L 1568,358Q1568,368 1558,368L 1543,368"/><path transform="translate( 1593, 307 ) rotate( 270 )" d="M3 6C4.65685 6 6 4.65685 6 3C6 1.34315 4.65685 0 3 0C1.34315 0 0 1.34315 0 3C0 4.65685 1.34315 6 3 6Z" fill="#4d9ef6"/><path transform="translate( 1541, 375 ) rotate( 630 )" d="M6.34003 0.275664C6.70452 -0.0918881 7.29548 -0.0918881 7.65997 0.275664L13.7266 6.39331C14.0911 6.76086 14.0911 7.35678 13.7266 7.72434C13.3621 8.09189 12.7712 8.09189 12.4067 7.72434L7 2.2722L1.5933 7.72434C1.22881 8.09189 0.637856 8.09189 0.273367 7.72434C-0.0911224 7.35678 -0.0911224 6.76086 0.273367 6.39331L6.34003 0.275664Z" fill="#4d9ef6"/></g><g><path fill="none" stroke="#4d9ef6" stroke-width="2" stroke-dasharray="0px 0px" d="M 1765,304L 1792,304L 1792,304L 1815,304"/><path transform="translate( 1767, 301 ) rotate( 450 )" d="M3 6C4.65685 6 6 4.65685 6 3C6 1.34315 4.65685 0 3 0C1.34315 0 0 1.34315 0 3C0 4.65685 1.34315 6 3 6Z" fill="#4d9ef6"/><path transform="translate( 1817, 297 ) rotate( 450 )" d="M6.34003 0.275664C6.70452 -0.0918881 7.29548 -0.0918881 7.65997 0.275664L13.7266 6.39331C14.0911 6.76086 14.0911 7.35678 13.7266 7.72434C13.3621 8.09189 12.7712 8.09189 12.4067 7.72434L7 2.2722L1.5933 7.72434C1.22881 8.09189 0.637856 8.09189 0.273367 7.72434C-0.0911224 7.35678 -0.0911224 6.76086 0.273367 6.39331L6.34003 0.275664Z" fill="#4d9ef6"/></g><g><path fill="none" stroke="#4d9ef6" stroke-width="2" stroke-dasharray="0px 0px" d="M 2661,816L 2678,816Q2688,816 2688,806L 2688,762Q2688,752 2698,752L 2713,752"/><path transform="translate( 2663, 813 ) rotate( 450 )" d="M3 6C4.65685 6 6 4.65685 6 3C6 1.34315 4.65685 0 3 0C1.34315 0 0 1.34315 0 3C0 4.65685 1.34315 6 3 6Z" fill="#4d9ef6"/><path transform="translate( 2715, 745 ) rotate( 450 )" d="M6.34003 0.275664C6.70452 -0.0918881 7.29548 -0.0918881 7.65997 0.275664L13.7266 6.39331C14.0911 6.76086 14.0911 7.35678 13.7266 7.72434C13.3621 8.09189 12.7712 8.09189 12.4067 7.72434L7 2.2722L1.5933 7.72434C1.22881 8.09189 0.637856 8.09189 0.273367 7.72434C-0.0911224 7.35678 -0.0911224 6.76086 0.273367 6.39331L6.34003 0.275664Z" fill="#4d9ef6"/></g><g><path fill="none" stroke="#4d9ef6" stroke-width="2" stroke-dasharray="0px 0px" d="M 2661,816L 2678,816Q2688,816 2688,826L 2688,870Q2688,880 2698,880L 2713,880"/><path transform="translate( 2663, 813 ) rotate( 450 )" d="M3 6C4.65685 6 6 4.65685 6 3C6 1.34315 4.65685 0 3 0C1.34315 0 0 1.34315 0 3C0 4.65685 1.34315 6 3 6Z" fill="#4d9ef6"/><path transform="translate( 2715, 873 ) rotate( 450 )" d="M6.34003 0.275664C6.70452 -0.0918881 7.29548 -0.0918881 7.65997 0.275664L13.7266 6.39331C14.0911 6.76086 14.0911 7.35678 13.7266 7.72434C13.3621 8.09189 12.7712 8.09189 12.4067 7.72434L7 2.2722L1.5933 7.72434C1.22881 8.09189 0.637856 8.09189 0.273367 7.72434C-0.0911224 7.35678 -0.0911224 6.76086 0.273367 6.39331L6.34003 0.275664Z" fill="#4d9ef6"/></g><g><path fill="none" stroke="#4d9ef6" stroke-width="2" stroke-dasharray="0px 0px" d="M 2661,816L 2678,816Q2688,816 2688,826L 2688,998Q2688,1008 2698,1008L 2713,1008"/><path transform="translate( 2663, 813 ) rotate( 450 )" d="M3 6C4.65685 6 6 4.65685 6 3C6 1.34315 4.65685 0 3 0C1.34315 0 0 1.34315 0 3C0 4.65685 1.34315 6 3 6Z" fill="#4d9ef6"/><path transform="translate( 2715, 1001 ) rotate( 450 )" d="M6.34003 0.275664C6.70452 -0.0918881 7.29548 -0.0918881 7.65997 0.275664L13.7266 6.39331C14.0911 6.76086 14.0911 7.35678 13.7266 7.72434C13.3621 8.09189 12.7712 8.09189 12.4067 7.72434L7 2.2722L1.5933 7.72434C1.22881 8.09189 0.637856 8.09189 0.273367 7.72434C-0.0911224 7.35678 -0.0911224 6.76086 0.273367 6.39331L6.34003 0.275664Z" fill="#4d9ef6"/></g><g><path fill="none" stroke="#4d9ef6" stroke-width="2" stroke-dasharray="0px 0px" d="M 2661,816L 2678,816Q2688,816 2688,806L 2688,634Q2688,624 2698,624L 2713,624"/><path transform="translate( 2663, 813 ) rotate( 450 )" d="M3 6C4.65685 6 6 4.65685 6 3C6 1.34315 4.65685 0 3 0C1.34315 0 0 1.34315 0 3C0 4.65685 1.34315 6 3 6Z" fill="#4d9ef6"/><path transform="translate( 2715, 617 ) rotate( 450 )" d="M6.34003 0.275664C6.70452 -0.0918881 7.29548 -0.0918881 7.65997 0.275664L13.7266 6.39331C14.0911 6.76086 14.0911 7.35678 13.7266 7.72434C13.3621 8.09189 12.7712 8.09189 12.4067 7.72434L7 2.2722L1.5933 7.72434C1.22881 8.09189 0.637856 8.09189 0.273367 7.72434C-0.0911224 7.35678 -0.0911224 6.76086 0.273367 6.39331L6.34003 0.275664Z" fill="#4d9ef6"/></g><g><path fill="none" stroke="#4d9ef6" stroke-width="2" stroke-dasharray="0px 0px" d="M 2661,816L 2688,816L 2902,816Q2912,816 2912,806L 2912,634Q2912,624 2922,624L 2937,624"/><path transform="translate( 2663, 813 ) rotate( 450 )" d="M3 6C4.65685 6 6 4.65685 6 3C6 1.34315 4.65685 0 3 0C1.34315 0 0 1.34315 0 3C0 4.65685 1.34315 6 3 6Z" fill="#4d9ef6"/><path transform="translate( 2939, 617 ) rotate( 450 )" d="M6.34003 0.275664C6.70452 -0.0918881 7.29548 -0.0918881 7.65997 0.275664L13.7266 6.39331C14.0911 6.76086 14.0911 7.35678 13.7266 7.72434C13.3621 8.09189 12.7712 8.09189 12.4067 7.72434L7 2.2722L1.5933 7.72434C1.22881 8.09189 0.637856 8.09189 0.273367 7.72434C-0.0911224 7.35678 -0.0911224 6.76086 0.273367 6.39331L6.34003 0.275664Z" fill="#4d9ef6"/></g><g><path fill="none" stroke="#4d9ef6" stroke-width="2" stroke-dasharray="0px 0px" d="M 2661,816L 2688,816L 2902,816Q2912,816 2912,806L 2912,762Q2912,752 2922,752L 2937,752"/><path transform="translate( 2663, 813 ) rotate( 450 )" d="M3 6C4.65685 6 6 4.65685 6 3C6 1.34315 4.65685 0 3 0C1.34315 0 0 1.34315 0 3C0 4.65685 1.34315 6 3 6Z" fill="#4d9ef6"/><path transform="translate( 2939, 745 ) rotate( 450 )" d="M6.34003 0.275664C6.70452 -0.0918881 7.29548 -0.0918881 7.65997 0.275664L13.7266 6.39331C14.0911 6.76086 14.0911 7.35678 13.7266 7.72434C13.3621 8.09189 12.7712 8.09189 12.4067 7.72434L7 2.2722L1.5933 7.72434C1.22881 8.09189 0.637856 8.09189 0.273367 7.72434C-0.0911224 7.35678 -0.0911224 6.76086 0.273367 6.39331L6.34003 0.275664Z" fill="#4d9ef6"/></g><g><path fill="none" stroke="#4d9ef6" stroke-width="2" stroke-dasharray="0px 0px" d="M 2661,816L 2688,816L 2902,816Q2912,816 2912,826L 2912,870Q2912,880 2922,880L 2937,880"/><path transform="translate( 2663, 813 ) rotate( 450 )" d="M3 6C4.65685 6 6 4.65685 6 3C6 1.34315 4.65685 0 3 0C1.34315 0 0 1.34315 0 3C0 4.65685 1.34315 6 3 6Z" fill="#4d9ef6"/><path transform="translate( 2939, 873 ) rotate( 450 )" d="M6.34003 0.275664C6.70452 -0.0918881 7.29548 -0.0918881 7.65997 0.275664L13.7266 6.39331C14.0911 6.76086 14.0911 7.35678 13.7266 7.72434C13.3621 8.09189 12.7712 8.09189 12.4067 7.72434L7 2.2722L1.5933 7.72434C1.22881 8.09189 0.637856 8.09189 0.273367 7.72434C-0.0911224 7.35678 -0.0911224 6.76086 0.273367 6.39331L6.34003 0.275664Z" fill="#4d9ef6"/></g><g><path fill="none" stroke="#4d9ef6" stroke-width="2" stroke-dasharray="0px 0px" d="M 2661,816L 2688,816L 2902,816Q2912,816 2912,826L 2912,998Q2912,1008 2922,1008L 2937,1008"/><path transform="translate( 2663, 813 ) rotate( 450 )" d="M3 6C4.65685 6 6 4.65685 6 3C6 1.34315 4.65685 0 3 0C1.34315 0 0 1.34315 0 3C0 4.65685 1.34315 6 3 6Z" fill="#4d9ef6"/><path transform="translate( 2939, 1001 ) rotate( 450 )" d="M6.34003 0.275664C6.70452 -0.0918881 7.29548 -0.0918881 7.65997 0.275664L13.7266 6.39331C14.0911 6.76086 14.0911 7.35678 13.7266 7.72434C13.3621 8.09189 12.7712 8.09189 12.4067 7.72434L7 2.2722L1.5933 7.72434C1.22881 8.09189 0.637856 8.09189 0.273367 7.72434C-0.0911224 7.35678 -0.0911224 6.76086 0.273367 6.39331L6.34003 0.275664Z" fill="#4d9ef6"/></g><g><path fill="none" stroke="#4d9ef6" stroke-width="2" stroke-dasharray="0px 0px" d="M 2661,816L 2688,816L 3136,816L 3161,816"/><path transform="translate( 2663, 813 ) rotate( 450 )" d="M3 6C4.65685 6 6 4.65685 6 3C6 1.34315 4.65685 0 3 0C1.34315 0 0 1.34315 0 3C0 4.65685 1.34315 6 3 6Z" fill="#4d9ef6"/><path transform="translate( 3163, 809 ) rotate( 450 )" d="M6.34003 0.275664C6.70452 -0.0918881 7.29548 -0.0918881 7.65997 0.275664L13.7266 6.39331C14.0911 6.76086 14.0911 7.35678 13.7266 7.72434C13.3621 8.09189 12.7712 8.09189 12.4067 7.72434L7 2.2722L1.5933 7.72434C1.22881 8.09189 0.637856 8.09189 0.273367 7.72434C-0.0911224 7.35678 -0.0911224 6.76086 0.273367 6.39331L6.34003 0.275664Z" fill="#4d9ef6"/></g><g><path fill="none" stroke="#4d9ef6" stroke-width="2" stroke-dasharray="0px 0px" d="M 2213,304L 2240,304L 2240,304L 2263,304"/><path transform="translate( 2215, 301 ) rotate( 450 )" d="M3 6C4.65685 6 6 4.65685 6 3C6 1.34315 4.65685 0 3 0C1.34315 0 0 1.34315 0 3C0 4.65685 1.34315 6 3 6Z" fill="#4d9ef6"/><path transform="translate( 2265, 297 ) rotate( 450 )" d="M6.34003 0.275664C6.70452 -0.0918881 7.29548 -0.0918881 7.65997 0.275664L13.7266 6.39331C14.0911 6.76086 14.0911 7.35678 13.7266 7.72434C13.3621 8.09189 12.7712 8.09189 12.4067 7.72434L7 2.2722L1.5933 7.72434C1.22881 8.09189 0.637856 8.09189 0.273367 7.72434C-0.0911224 7.35678 -0.0911224 6.76086 0.273367 6.39331L6.34003 0.275664Z" fill="#4d9ef6"/></g><g><path fill="none" stroke="#4d9ef6" stroke-width="2" stroke-dasharray="0px 0px" d="M 1991,304L 2016,304L 2016,304L 2041,304"/><path transform="translate( 1993, 301 ) rotate( 450 )" d="M3 6C4.65685 6 6 4.65685 6 3C6 1.34315 4.65685 0 3 0C1.34315 0 0 1.34315 0 3C0 4.65685 1.34315 6 3 6Z" fill="#4d9ef6"/><path transform="translate( 2043, 297 ) rotate( 450 )" d="M6.34003 0.275664C6.70452 -0.0918881 7.29548 -0.0918881 7.65997 0.275664L13.7266 6.39331C14.0911 6.76086 14.0911 7.35678 13.7266 7.72434C13.3621 8.09189 12.7712 8.09189 12.4067 7.72434L7 2.2722L1.5933 7.72434C1.22881 8.09189 0.637856 8.09189 0.273367 7.72434C-0.0911224 7.35678 -0.0911224 6.76086 0.273367 6.39331L6.34003 0.275664Z" fill="#4d9ef6"/></g><g><path fill="none" stroke="#4d9ef6" stroke-width="2" stroke-dasharray="0px 0px" d="M 1595,560L 1578,560Q1568,560 1568,570L 1568,614Q1568,624 1558,624L 1543,624"/><path transform="translate( 1593, 563 ) rotate( 270 )" d="M3 6C4.65685 6 6 4.65685 6 3C6 1.34315 4.65685 0 3 0C1.34315 0 0 1.34315 0 3C0 4.65685 1.34315 6 3 6Z" fill="#4d9ef6"/><path transform="translate( 1541, 631 ) rotate( 630 )" d="M6.34003 0.275664C6.70452 -0.0918881 7.29548 -0.0918881 7.65997 0.275664L13.7266 6.39331C14.0911 6.76086 14.0911 7.35678 13.7266 7.72434C13.3621 8.09189 12.7712 8.09189 12.4067 7.72434L7 2.2722L1.5933 7.72434C1.22881 8.09189 0.637856 8.09189 0.273367 7.72434C-0.0911224 7.35678 -0.0911224 6.76086 0.273367 6.39331L6.34003 0.275664Z" fill="#4d9ef6"/></g><g><path fill="none" stroke="#4d9ef6" stroke-width="2" stroke-dasharray="0px 0px" d="M 1595,560L 1578,560Q1568,560 1568,570L 1568,742Q1568,752 1558,752L 1543,752"/><path transform="translate( 1593, 563 ) rotate( 270 )" d="M3 6C4.65685 6 6 4.65685 6 3C6 1.34315 4.65685 0 3 0C1.34315 0 0 1.34315 0 3C0 4.65685 1.34315 6 3 6Z" fill="#4d9ef6"/><path transform="translate( 1541, 759 ) rotate( 630 )" d="M6.34003 0.275664C6.70452 -0.0918881 7.29548 -0.0918881 7.65997 0.275664L13.7266 6.39331C14.0911 6.76086 14.0911 7.35678 13.7266 7.72434C13.3621 8.09189 12.7712 8.09189 12.4067 7.72434L7 2.2722L1.5933 7.72434C1.22881 8.09189 0.637856 8.09189 0.273367 7.72434C-0.0911224 7.35678 -0.0911224 6.76086 0.273367 6.39331L6.34003 0.275664Z" fill="#4d9ef6"/></g><g><path fill="none" stroke="#4d9ef6" stroke-width="2" stroke-dasharray="0px 0px" d="M 1595,560L 1578,560Q1568,560 1568,570L 1568,870Q1568,880 1558,880L 1543,880"/><path transform="translate( 1593, 563 ) rotate( 270 )" d="M3 6C4.65685 6 6 4.65685 6 3C6 1.34315 4.65685 0 3 0C1.34315 0 0 1.34315 0 3C0 4.65685 1.34315 6 3 6Z" fill="#4d9ef6"/><path transform="translate( 1541, 887 ) rotate( 630 )" d="M6.34003 0.275664C6.70452 -0.0918881 7.29548 -0.0918881 7.65997 0.275664L13.7266 6.39331C14.0911 6.76086 14.0911 7.35678 13.7266 7.72434C13.3621 8.09189 12.7712 8.09189 12.4067 7.72434L7 2.2722L1.5933 7.72434C1.22881 8.09189 0.637856 8.09189 0.273367 7.72434C-0.0911224 7.35678 -0.0911224 6.76086 0.273367 6.39331L6.34003 0.275664Z" fill="#4d9ef6"/></g><g><path fill="none" stroke="#4d9ef6" stroke-width="2" stroke-dasharray="0px 0px" d="M 1595,560L 1578,560Q1568,560 1568,550L 1568,506Q1568,496 1558,496L 1543,496"/><path transform="translate( 1593, 563 ) rotate( 270 )" d="M3 6C4.65685 6 6 4.65685 6 3C6 1.34315 4.65685 0 3 0C1.34315 0 0 1.34315 0 3C0 4.65685 1.34315 6 3 6Z" fill="#4d9ef6"/><path transform="translate( 1541, 503 ) rotate( 630 )" d="M6.34003 0.275664C6.70452 -0.0918881 7.29548 -0.0918881 7.65997 0.275664L13.7266 6.39331C14.0911 6.76086 14.0911 7.35678 13.7266 7.72434C13.3621 8.09189 12.7712 8.09189 12.4067 7.72434L7 2.2722L1.5933 7.72434C1.22881 8.09189 0.637856 8.09189 0.273367 7.72434C-0.0911224 7.35678 -0.0911224 6.76086 0.273367 6.39331L6.34003 0.275664Z" fill="#4d9ef6"/></g><g><path fill="none" stroke="#4d9ef6" stroke-width="2" stroke-dasharray="0px 0px" d="M 1680,470.5L 1680,496L 1680,496L 1680,521"/><path transform="translate( 1683, 472.5 ) rotate( 180 )" d="M3 6C4.65685 6 6 4.65685 6 3C6 1.34315 4.65685 0 3 0C1.34315 0 0 1.34315 0 3C0 4.65685 1.34315 6 3 6Z" fill="#4d9ef6"/><path transform="translate( 1687, 523 ) rotate( 540 )" d="M6.34003 0.275664C6.70452 -0.0918881 7.29548 -0.0918881 7.65997 0.275664L13.7266 6.39331C14.0911 6.76086 14.0911 7.35678 13.7266 7.72434C13.3621 8.09189 12.7712 8.09189 12.4067 7.72434L7 2.2722L1.5933 7.72434C1.22881 8.09189 0.637856 8.09189 0.273367 7.72434C-0.0911224 7.35678 -0.0911224 6.76086 0.273367 6.39331L6.34003 0.275664Z" fill="#4d9ef6"/></g><g><path fill="none" stroke="#4d9ef6" stroke-width="2" stroke-dasharray="0px 0px" d="M 2439,304L 2464,304L 2464,304L 2489,304"/><path transform="translate( 2441, 301 ) rotate( 450 )" d="M3 6C4.65685 6 6 4.65685 6 3C6 1.34315 4.65685 0 3 0C1.34315 0 0 1.34315 0 3C0 4.65685 1.34315 6 3 6Z" fill="#4d9ef6"/><path transform="translate( 2491, 297 ) rotate( 450 )" d="M6.34003 0.275664C6.70452 -0.0918881 7.29548 -0.0918881 7.65997 0.275664L13.7266 6.39331C14.0911 6.76086 14.0911 7.35678 13.7266 7.72434C13.3621 8.09189 12.7712 8.09189 12.4067 7.72434L7 2.2722L1.5933 7.72434C1.22881 8.09189 0.637856 8.09189 0.273367 7.72434C-0.0911224 7.35678 -0.0911224 6.76086 0.273367 6.39331L6.34003 0.275664Z" fill="#4d9ef6"/></g><g><path fill="none" stroke="#4d9ef6" stroke-width="2" stroke-dasharray="0px 0px" d="M 2576,341L 2576,368L 2576,496L 2576,519.5"/><path transform="translate( 2579, 343 ) rotate( 180 )" d="M3 6C4.65685 6 6 4.65685 6 3C6 1.34315 4.65685 0 3 0C1.34315 0 0 1.34315 0 3C0 4.65685 1.34315 6 3 6Z" fill="#4d9ef6"/><path transform="translate( 2583, 521.5 ) rotate( 540 )" d="M6.34003 0.275664C6.70452 -0.0918881 7.29548 -0.0918881 7.65997 0.275664L13.7266 6.39331C14.0911 6.76086 14.0911 7.35678 13.7266 7.72434C13.3621 8.09189 12.7712 8.09189 12.4067 7.72434L7 2.2722L1.5933 7.72434C1.22881 8.09189 0.637856 8.09189 0.273367 7.72434C-0.0911224 7.35678 -0.0911224 6.76086 0.273367 6.39331L6.34003 0.275664Z" fill="#4d9ef6"/></g><g><path fill="none" stroke="#4d9ef6" stroke-width="2" stroke-dasharray="0px 0px" d="M 2661,304L 2678,304Q2688,304 2688,294L 2688,122Q2688,112 2698,112L 2713,112"/><path transform="translate( 2663, 301 ) rotate( 450 )" d="M3 6C4.65685 6 6 4.65685 6 3C6 1.34315 4.65685 0 3 0C1.34315 0 0 1.34315 0 3C0 4.65685 1.34315 6 3 6Z" fill="#4d9ef6"/><path transform="translate( 2715, 105 ) rotate( 450 )" d="M6.34003 0.275664C6.70452 -0.0918881 7.29548 -0.0918881 7.65997 0.275664L13.7266 6.39331C14.0911 6.76086 14.0911 7.35678 13.7266 7.72434C13.3621 8.09189 12.7712 8.09189 12.4067 7.72434L7 2.2722L1.5933 7.72434C1.22881 8.09189 0.637856 8.09189 0.273367 7.72434C-0.0911224 7.35678 -0.0911224 6.76086 0.273367 6.39331L6.34003 0.275664Z" fill="#4d9ef6"/></g><g><path fill="none" stroke="#4d9ef6" stroke-width="2" stroke-dasharray="0px 0px" d="M 2661,304L 2678,304Q2688,304 2688,294L 2688,250Q2688,240 2698,240L 2713,240"/><path transform="translate( 2663, 301 ) rotate( 450 )" d="M3 6C4.65685 6 6 4.65685 6 3C6 1.34315 4.65685 0 3 0C1.34315 0 0 1.34315 0 3C0 4.65685 1.34315 6 3 6Z" fill="#4d9ef6"/><path transform="translate( 2715, 233 ) rotate( 450 )" d="M6.34003 0.275664C6.70452 -0.0918881 7.29548 -0.0918881 7.65997 0.275664L13.7266 6.39331C14.0911 6.76086 14.0911 7.35678 13.7266 7.72434C13.3621 8.09189 12.7712 8.09189 12.4067 7.72434L7 2.2722L1.5933 7.72434C1.22881 8.09189 0.637856 8.09189 0.273367 7.72434C-0.0911224 7.35678 -0.0911224 6.76086 0.273367 6.39331L6.34003 0.275664Z" fill="#4d9ef6"/></g><g><path fill="none" stroke="#4d9ef6" stroke-width="2" stroke-dasharray="0px 0px" d="M 2661,304L 2678,304Q2688,304 2688,314L 2688,358Q2688,368 2698,368L 2713,368"/><path transform="translate( 2663, 301 ) rotate( 450 )" d="M3 6C4.65685 6 6 4.65685 6 3C6 1.34315 4.65685 0 3 0C1.34315 0 0 1.34315 0 3C0 4.65685 1.34315 6 3 6Z" fill="#4d9ef6"/><path transform="translate( 2715, 361 ) rotate( 450 )" d="M6.34003 0.275664C6.70452 -0.0918881 7.29548 -0.0918881 7.65997 0.275664L13.7266 6.39331C14.0911 6.76086 14.0911 7.35678 13.7266 7.72434C13.3621 8.09189 12.7712 8.09189 12.4067 7.72434L7 2.2722L1.5933 7.72434C1.22881 8.09189 0.637856 8.09189 0.273367 7.72434C-0.0911224 7.35678 -0.0911224 6.76086 0.273367 6.39331L6.34003 0.275664Z" fill="#4d9ef6"/></g><g><path fill="none" stroke="#4d9ef6" stroke-width="2" stroke-dasharray="0px 0px" d="M 2661,304L 2678,304Q2688,304 2688,314L 2688,486Q2688,496 2698,496L 2713,496"/><path transform="translate( 2663, 301 ) rotate( 450 )" d="M3 6C4.65685 6 6 4.65685 6 3C6 1.34315 4.65685 0 3 0C1.34315 0 0 1.34315 0 3C0 4.65685 1.34315 6 3 6Z" fill="#4d9ef6"/><path transform="translate( 2715, 489 ) rotate( 450 )" d="M6.34003 0.275664C6.70452 -0.0918881 7.29548 -0.0918881 7.65997 0.275664L13.7266 6.39331C14.0911 6.76086 14.0911 7.35678 13.7266 7.72434C13.3621 8.09189 12.7712 8.09189 12.4067 7.72434L7 2.2722L1.5933 7.72434C1.22881 8.09189 0.637856 8.09189 0.273367 7.72434C-0.0911224 7.35678 -0.0911224 6.76086 0.273367 6.39331L6.34003 0.275664Z" fill="#4d9ef6"/></g><g><path fill="none" stroke="#4d9ef6" stroke-width="2" stroke-dasharray="0px 0px" d="M 2576,598.5L 2576,624L 2576,752L 2576,777"/><path transform="translate( 2579, 600.5 ) rotate( 180 )" d="M3 6C4.65685 6 6 4.65685 6 3C6 1.34315 4.65685 0 3 0C1.34315 0 0 1.34315 0 3C0 4.65685 1.34315 6 3 6Z" fill="#4d9ef6"/><path transform="translate( 2583, 779 ) rotate( 540 )" d="M6.34003 0.275664C6.70452 -0.0918881 7.29548 -0.0918881 7.65997 0.275664L13.7266 6.39331C14.0911 6.76086 14.0911 7.35678 13.7266 7.72434C13.3621 8.09189 12.7712 8.09189 12.4067 7.72434L7 2.2722L1.5933 7.72434C1.22881 8.09189 0.637856 8.09189 0.273367 7.72434C-0.0911224 7.35678 -0.0911224 6.76086 0.273367 6.39331L6.34003 0.275664Z" fill="#4d9ef6"/></g><g><path fill="none" stroke="#4d9ef6" stroke-width="2" stroke-dasharray="0px 0px" d="M 2489,560L 2464,560L 1792,560L 1767,560"/><path transform="translate( 2487, 563 ) rotate( 270 )" d="M3 6C4.65685 6 6 4.65685 6 3C6 1.34315 4.65685 0 3 0C1.34315 0 0 1.34315 0 3C0 4.65685 1.34315 6 3 6Z" fill="#4d9ef6"/><path transform="translate( 1765, 567 ) rotate( 630 )" d="M6.34003 0.275664C6.70452 -0.0918881 7.29548 -0.0918881 7.65997 0.275664L13.7266 6.39331C14.0911 6.76086 14.0911 7.35678 13.7266 7.72434C13.3621 8.09189 12.7712 8.09189 12.4067 7.72434L7 2.2722L1.5933 7.72434C1.22881 8.09189 0.637856 8.09189 0.273367 7.72434C-0.0911224 7.35678 -0.0911224 6.76086 0.273367 6.39331L6.34003 0.275664Z" fill="#4d9ef6"/></g></g><g><g transform="translate(2044, 36)"><rect width="216" height="112" fill="none" stroke="none" stroke-width="2" stroke-dasharray="0px 0px"/><g><g transform="translate(16, 16)"><g transform="translate(0, 0)"><g><g transform="translate(0, 0)"><g transform="translate(0, 0)"><text x="0" y="30.4" fill="0x000000" font-size="32px" font-variant="size" font-family="Roboto,sans-serif" font-weight="400">Вариант 10</text></g></g></g></g></g></g></g><g transform="translate(492, 20)"><rect width="184" height="72" fill="none" stroke="none" stroke-width="2" stroke-dasharray="0px 0px"/><g><g transform="translate(16, 16)"><g transform="translate(0, 0)"><g><g transform="translate(0, 0)"><g transform="translate(0, 0)"><text x="0" y="30.4" fill="0x000000" font-size="32px" font-variant="size" font-family="Roboto,sans-serif" font-weight="400">Вариант 9</text></g></g></g></g></g></g></g><g transform="translate(332, 404)"><rect width="184" height="48" fill="none" stroke="none" stroke-width="2" stroke-dasharray="0px 0px"/><g><g transform="translate(16, 16)"><g transform="translate(0, 0)"><g><g transform="translate(0, 0)"><g transform="translate(0, 0)"><text x="0" y="13.3" fill="0x000000" font-size="14" font-variant="" font-family="Roboto,sans-serif" font-weight="400">M</text></g></g></g></g></g></g></g><g transform="translate(332, 276)"><rect width="184" height="48" fill="none" stroke="none" stroke-width="2" stroke-dasharray="0px 0px"/><g><g transform="translate(16, 16)"><g transform="translate(0, 0)"><g><g transform="translate(0, 0)"><g transform="translate(0, 0)"><text x="0" y="13.3" fill="0x000000" font-size="14" font-variant="" font-family="Roboto,sans-serif" font-weight="400">1</text></g></g></g></g></g></g></g><g transform="translate(252, 228)"><rect width="184" height="48" fill="none" stroke="none" stroke-width="2" stroke-dasharray="0px 0px"/><g><g transform="translate(16, 16)"><g transform="translate(0, 0)"><g><g transform="translate(0, 0)"><g transform="translate(0, 0)"><text x="0" y="13.3" fill="0x000000" font-size="14" font-variant="" font-family="Roboto,sans-serif" font-weight="400">1</text></g></g></g></g></g></g></g><g transform="translate(652, 452)"><rect width="184" height="48" fill="none" stroke="none" stroke-width="2" stroke-dasharray="0px 0px"/><g><g transform="translate(16, 16)"><g transform="translate(0, 0)"><g><g transform="translate(0, 0)"><g transform="translate(0, 0)"><text x="0" y="13.3" fill="0x000000" font-size="14" font-variant="" font-family="Roboto,sans-serif" font-weight="400">M</text></g></g></g></g></g></g></g><g transform="translate(1988, 260)"><rect width="184" height="48" fill="none" stroke="none" stroke-width="2" stroke-dasharray="0px 0px"/><g><g transform="translate(16, 16)"><g transform="translate(0, 0)"><g><g transform="translate(0, 0)"><g transform="translate(0, 0)"><text x="0" y="13.3" fill="0x000000" font-size="14" font-variant="" font-family="Roboto,sans-serif" font-weight="400">M</text></g></g></g></g></g></g></g><g transform="translate(1772, 260)"><rect width="184" height="48" fill="none" stroke="none" stroke-width="2" stroke-dasharray="0px 0px"/><g><g transform="translate(16, 16)"><g transform="translate(0, 0)"><g><g transform="translate(0, 0)"><g transform="translate(0, 0)"><text x="0" y="13.3" fill="0x000000" font-size="14" font-variant="" font-family="Roboto,sans-serif" font-weight="400">1</text></g></g></g></g></g></g></g><g transform="translate(1636, 348)"><rect width="184" height="48" fill="none" stroke="none" stroke-width="2" stroke-dasharray="0px 0px"/><g><g transform="translate(16, 16)"><g transform="translate(0, 0)"><g><g transform="translate(0, 0)"><g transform="translate(0, 0)"><text x="0" y="13.3" fill="0x000000" font-size="14" font-variant="" font-family="Roboto,sans-serif" font-weight="400">1</text></g></g></g></g></g></g></g><g transform="translate(1628, 468)"><rect width="184" height="48" fill="none" stroke="none" stroke-width="2" stroke-dasharray="0px 0px"/><g><g transform="translate(16, 16)"><g transform="translate(0, 0)"><g><g transform="translate(0, 0)"><g transform="translate(0, 0)"><text x="0" y="13.3" fill="0x000000" font-size="14" font-variant="" font-family="Roboto,sans-serif" font-weight="400">M</text></g></g></g></g></g></g></g><g transform="translate(2212, 260)"><rect width="184" height="48" fill="none" stroke="none" stroke-width="2" stroke-dasharray="0px 0px"/><g><g transform="translate(16, 16)"><g transform="translate(0, 0)"><g><g transform="translate(0, 0)"><g transform="translate(0, 0)"><text x="0" y="13.3" fill="0x000000" font-size="14" font-variant="" font-family="Roboto,sans-serif" font-weight="400">1</text></g></g></g></g></g></g></g><g transform="translate(2436, 260)"><rect width="184" height="48" fill="none" stroke="none" stroke-width="2" stroke-dasharray="0px 0px"/><g><g transform="translate(16, 16)"><g transform="translate(0, 0)"><g><g transform="translate(0, 0)"><g transform="translate(0, 0)"><text x="0" y="13.3" fill="0x000000" font-size="14" font-variant="" font-family="Roboto,sans-serif" font-weight="400">M</text></g></g></g></g></g></g></g><g transform="translate(2572, 356)"><rect width="184" height="48" fill="none" stroke="none" stroke-width="2" stroke-dasharray="0px 0px"/><g><g transform="translate(16, 16)"><g transform="translate(0, 0)"><g><g transform="translate(0, 0)"><g transform="translate(0, 0)"><text x="0" y="13.3" fill="0x000000" font-size="14" font-variant="" font-family="Roboto,sans-serif" font-weight="400">1</text></g></g></g></g></g></g></g><g transform="translate(2572, 596)"><rect width="184" height="48" fill="none" stroke="none" stroke-width="2" stroke-dasharray="0px 0px"/><g><g transform="translate(16, 16)"><g transform="translate(0, 0)"><g><g transform="translate(0, 0)"><g transform="translate(0, 0)"><text x="0" y="13.3" fill="0x000000" font-size="14" font-variant="" font-family="Roboto,sans-serif" font-weight="400">1</text></g></g></g></g></g></g></g><g transform="translate(2436, 516)"><rect width="184" height="48" fill="none" stroke="none" stroke-width="2" stroke-dasharray="0px 0px"/><g><g transform="translate(16, 16)"><g transform="translate(0, 0)"><g><g transform="translate(0, 0)"><g transform="translate(0, 0)"><text x="0" y="13.3" fill="0x000000" font-size="14" font-variant="" font-family="Roboto,sans-serif" font-weight="400">1</text></g></g></g></g></g></g></g></g></g></g></svg>